<svg width="79" height="50" viewBox="0 0 79 50" fill="none" xmlns="http://www.w3.org/2000/svg">
<path d="M4.71413 19H0.594815L6.87145 0.818181H11.8253L18.093 19H13.9737L9.41939 4.97301H9.27734L4.71413 19ZM4.45668 11.8533H14.1868V14.854H4.45668V11.8533ZM25.7191 24.3977C24.494 24.3977 23.4434 24.229 22.5675 23.8917C21.6974 23.5603 21.005 23.1075 20.4901 22.5334C19.9751 21.9593 19.6407 21.3142 19.4869 20.598L22.9847 20.1275C23.0913 20.3997 23.2599 20.6542 23.4908 20.891C23.7216 21.1277 24.0264 21.3171 24.4052 21.4592C24.7899 21.6071 25.2575 21.6811 25.8079 21.6811C26.6306 21.6811 27.3082 21.4799 27.8409 21.0774C28.3795 20.6809 28.6488 20.015 28.6488 19.0799V16.5852H28.489C28.3233 16.964 28.0747 17.3221 27.7433 17.6594C27.4118 17.9968 26.9857 18.272 26.4648 18.4851C25.944 18.6982 25.3226 18.8047 24.6005 18.8047C23.5766 18.8047 22.6444 18.5679 21.804 18.0945C20.9695 17.6151 20.3036 16.8841 19.8065 15.9016C19.3152 14.9132 19.0696 13.6644 19.0696 12.1552C19.0696 10.6104 19.3211 9.32019 19.8242 8.28445C20.3273 7.2487 20.9961 6.47337 21.8306 5.95845C22.671 5.44354 23.5914 5.18608 24.5916 5.18608C25.3551 5.18608 25.9943 5.31629 26.5092 5.5767C27.0241 5.8312 27.4384 6.1508 27.7521 6.53551C28.0717 6.9143 28.3174 7.28717 28.489 7.65412H28.631V5.36364H32.3864V19.1332C32.3864 20.2932 32.1023 21.2638 31.5341 22.0451C30.9659 22.8263 30.1787 23.4123 29.1726 23.8029C28.1723 24.1995 27.0212 24.3977 25.7191 24.3977ZM25.799 15.9638C26.4086 15.9638 26.9235 15.8129 27.3438 15.511C27.7699 15.2032 28.0954 14.7653 28.3203 14.1971C28.5511 13.623 28.6665 12.9364 28.6665 12.1374C28.6665 11.3384 28.5541 10.646 28.3292 10.06C28.1043 9.46816 27.7788 9.00947 27.3526 8.68395C26.9265 8.35843 26.4086 8.19567 25.799 8.19567C25.1776 8.19567 24.6538 8.36435 24.2276 8.7017C23.8015 9.03314 23.4789 9.49479 23.2599 10.0866C23.041 10.6785 22.9315 11.3621 22.9315 12.1374C22.9315 12.9246 23.041 13.6052 23.2599 14.1793C23.4848 14.7475 23.8074 15.1884 24.2276 15.5021C24.6538 15.8099 25.1776 15.9638 25.799 15.9638ZM39.2844 19.2575C38.4144 19.2575 37.6391 19.1065 36.9585 18.8047C36.2778 18.4969 35.7392 18.0442 35.3427 17.4464C34.9521 16.8427 34.7567 16.091 34.7567 15.1914C34.7567 14.4338 34.8958 13.7976 35.174 13.2827C35.4522 12.7678 35.831 12.3535 36.3104 12.0398C36.7898 11.7261 37.3343 11.4893 37.9439 11.3295C38.5594 11.1697 39.2045 11.0573 39.8793 10.9922C40.6723 10.9093 41.3116 10.8324 41.7969 10.7614C42.2822 10.6844 42.6344 10.572 42.8533 10.424C43.0723 10.276 43.1818 10.0571 43.1818 9.76705V9.71378C43.1818 9.15152 43.0043 8.7165 42.6491 8.40874C42.3 8.10097 41.8028 7.94709 41.1577 7.94709C40.477 7.94709 39.9355 8.09801 39.533 8.39986C39.1306 8.69579 38.8642 9.06866 38.734 9.51847L35.2362 9.23438C35.4137 8.40578 35.7629 7.68963 36.2837 7.08594C36.8046 6.47633 37.4763 6.00876 38.299 5.68324C39.1276 5.3518 40.0864 5.18608 41.1754 5.18608C41.933 5.18608 42.658 5.27486 43.3505 5.45241C44.0489 5.62997 44.6674 5.90518 45.206 6.27805C45.7505 6.65092 46.1796 7.13033 46.4933 7.71626C46.8069 8.29628 46.9638 8.99171 46.9638 9.80256V19H43.3771V17.109H43.2706C43.0516 17.5352 42.7586 17.911 42.3917 18.2365C42.0247 18.5561 41.5838 18.8076 41.0689 18.9911C40.554 19.1687 39.9592 19.2575 39.2844 19.2575ZM40.3675 16.6474C40.9239 16.6474 41.4151 16.5379 41.8413 16.3189C42.2674 16.094 42.6018 15.7921 42.8445 15.4134C43.0871 15.0346 43.2085 14.6055 43.2085 14.1261V12.679C43.0901 12.7559 42.9273 12.8269 42.7202 12.892C42.5189 12.9512 42.2911 13.0075 42.0366 13.0607C41.7821 13.1081 41.5276 13.1525 41.2731 13.1939C41.0186 13.2294 40.7878 13.262 40.5806 13.2915C40.1367 13.3567 39.7491 13.4602 39.4176 13.6023C39.0862 13.7443 38.8287 13.9367 38.6452 14.1793C38.4618 14.4161 38.37 14.712 38.37 15.0671C38.37 15.582 38.5565 15.9756 38.9293 16.2479C39.3081 16.5142 39.7875 16.6474 40.3675 16.6474ZM53.6799 11.1165V19H49.8979V5.36364H53.5023V7.76953H53.6621C53.964 6.97644 54.47 6.34908 55.1802 5.88743C55.8904 5.41986 56.7516 5.18608 57.7637 5.18608C58.7106 5.18608 59.5363 5.39323 60.2406 5.80753C60.9449 6.22183 61.4924 6.81368 61.883 7.5831C62.2736 8.34659 62.4689 9.25805 62.4689 10.3175V19H58.687V10.9922C58.6929 10.1577 58.4798 9.50663 58.0478 9.03906C57.6157 8.56558 57.0209 8.32884 56.2633 8.32884C55.7543 8.32884 55.3045 8.43833 54.9139 8.65731C54.5292 8.8763 54.2273 9.1959 54.0083 9.61612C53.7953 10.0304 53.6858 10.5305 53.6799 11.1165ZM69.2316 11.1165V19H65.4497V0.818181H69.1251V7.76953H69.2849C69.5927 6.96461 70.0898 6.33428 70.7764 5.87855C71.4629 5.4169 72.3241 5.18608 73.3598 5.18608C74.3068 5.18608 75.1324 5.39323 75.8367 5.80753C76.547 6.21591 77.0974 6.80481 77.488 7.57422C77.8846 8.33771 78.0799 9.25213 78.074 10.3175V19H74.292V10.9922C74.2979 10.1518 74.0848 9.49775 73.6528 9.03018C73.2267 8.56262 72.6289 8.32884 71.8595 8.32884C71.3445 8.32884 70.8888 8.43833 70.4923 8.65731C70.1017 8.8763 69.7939 9.1959 69.569 9.61612C69.35 10.0304 69.2375 10.5305 69.2316 11.1165ZM1.58026 49V30.8182H5.42436V38.8349H5.66406L12.207 30.8182H16.8146L10.0675 38.9592L16.8945 49H12.2958L7.31534 41.5249L5.42436 43.8331V49H1.58026ZM23.9058 49.2663C22.5268 49.2663 21.3342 48.9734 20.328 48.3874C19.3278 47.7956 18.5554 46.9729 18.0109 45.9194C17.4664 44.86 17.1942 43.6319 17.1942 42.2351C17.1942 40.8265 17.4664 39.5954 18.0109 38.5419C18.5554 37.4825 19.3278 36.6598 20.328 36.0739C21.3342 35.482 22.5268 35.1861 23.9058 35.1861C25.2848 35.1861 26.4745 35.482 27.4747 36.0739C28.4809 36.6598 29.2562 37.4825 29.8007 38.5419C30.3452 39.5954 30.6175 40.8265 30.6175 42.2351C30.6175 43.6319 30.3452 44.86 29.8007 45.9194C29.2562 46.9729 28.4809 47.7956 27.4747 48.3874C26.4745 48.9734 25.2848 49.2663 23.9058 49.2663ZM23.9236 46.3366C24.5509 46.3366 25.0747 46.1591 25.4949 45.804C25.9152 45.4429 26.2318 44.9517 26.4449 44.3303C26.6639 43.7088 26.7733 43.0015 26.7733 42.2085C26.7733 41.4154 26.6639 40.7081 26.4449 40.0866C26.2318 39.4652 25.9152 38.974 25.4949 38.6129C25.0747 38.2519 24.5509 38.0714 23.9236 38.0714C23.2903 38.0714 22.7576 38.2519 22.3256 38.6129C21.8994 38.974 21.5769 39.4652 21.3579 40.0866C21.1448 40.7081 21.0383 41.4154 21.0383 42.2085C21.0383 43.0015 21.1448 43.7088 21.3579 44.3303C21.5769 44.9517 21.8994 45.4429 22.3256 45.804C22.7576 46.1591 23.2903 46.3366 23.9236 46.3366ZM36.8586 30.8182V49H33.0766V30.8182H36.8586ZM43.7766 49.2575C42.9066 49.2575 42.1313 49.1065 41.4506 48.8047C40.77 48.4969 40.2314 48.0442 39.8349 47.4464C39.4442 46.8427 39.2489 46.091 39.2489 45.1914C39.2489 44.4338 39.388 43.7976 39.6662 43.2827C39.9444 42.7678 40.3232 42.3535 40.8026 42.0398C41.282 41.7261 41.8265 41.4893 42.4361 41.3295C43.0516 41.1697 43.6967 41.0573 44.3714 40.9922C45.1645 40.9093 45.8037 40.8324 46.2891 40.7614C46.7744 40.6844 47.1265 40.572 47.3455 40.424C47.5645 40.276 47.674 40.0571 47.674 39.767V39.7138C47.674 39.1515 47.4964 38.7165 47.1413 38.4087C46.7921 38.101 46.295 37.9471 45.6499 37.9471C44.9692 37.9471 44.4277 38.098 44.0252 38.3999C43.6228 38.6958 43.3564 39.0687 43.2262 39.5185L39.7283 39.2344C39.9059 38.4058 40.2551 37.6896 40.7759 37.0859C41.2968 36.4763 41.9685 36.0088 42.7912 35.6832C43.6198 35.3518 44.5786 35.1861 45.6676 35.1861C46.4252 35.1861 47.1502 35.2749 47.8427 35.4524C48.5411 35.63 49.1596 35.9052 49.6982 36.2781C50.2427 36.6509 50.6718 37.1303 50.9854 37.7163C51.2991 38.2963 51.456 38.9917 51.456 39.8026V49H47.8693V47.109H47.7628C47.5438 47.5352 47.2508 47.911 46.8839 48.2365C46.5169 48.5561 46.076 48.8076 45.5611 48.9911C45.0462 49.1687 44.4513 49.2575 43.7766 49.2575ZM44.8597 46.6474C45.4161 46.6474 45.9073 46.5379 46.3335 46.3189C46.7596 46.094 47.094 45.7921 47.3366 45.4134C47.5793 45.0346 47.7006 44.6055 47.7006 44.1261V42.679C47.5823 42.7559 47.4195 42.8269 47.2124 42.892C47.0111 42.9512 46.7833 43.0075 46.5288 43.0607C46.2743 43.1081 46.0198 43.1525 45.7653 43.1939C45.5108 43.2294 45.2799 43.262 45.0728 43.2915C44.6289 43.3567 44.2412 43.4602 43.9098 43.6023C43.5784 43.7443 43.3209 43.9367 43.1374 44.1793C42.954 44.4161 42.8622 44.712 42.8622 45.0671C42.8622 45.582 43.0487 45.9756 43.4215 46.2479C43.8003 46.5142 44.2797 46.6474 44.8597 46.6474Z" fill="black"/>
</svg>
